# xmcd
#
# Track frame offsets: 
#        150
#        28046
#        40276
#        59039
#        71936
#        87196
#        101976
#        122498
#
# Disc length: 4501 seconds
#
# Revision: 0
# Processed by: cddbd v1.5.2PL0 Copyright (c) Steve Scherf et al.
# Submitted via: ExactAudioCopy v0.95b4
#
DISCID=74119308
DTITLE=Eric Bibb - Spirit I am cd2
DYEAR=2008
DGENRE=Blues
TTITLE0=No more cane on the brazos
TTITLE1=Stagolee
TTITLE2=Goodnight Irene
TTITLE3=Bourgeois Blues
TTITLE4=Hold on
TTITLE5=Water
TTITLE6=I shall not be moved
TTITLE7=Video program
EXTD=
EXTT0=
EXTT1=
EXTT2=
EXTT3=
EXTT4=
EXTT5=
EXTT6=
EXTT7=
PLAYORDER=
